# xmcd
#
# Track frame offsets:
#	150
#	4545
#	20746
#	35757
#	52770
#	74427
#	90702
#	104492
#	120922
#	123235
#	142032
#	147324
#	164602
#	178018
#	194436
#	215222
#	232859
#
# Disc length: 3412 seconds
#
# Revision: 2
# Processed by: cddbd v1.5.2PL0 Copyright (c) Steve Scherf et al.
# Submitted via: audiograbber 1.83.01
#
DISCID=f50d5211
DTITLE=The Cutthoat Committee - Money Iz Motive
DYEAR=2005
DGENRE=Rap
TTITLE0=DJ Ambush - Cutthoat Intro
TTITLE1=P.S.D., Dubee, Mac Mall - Money Iz Motive
TTITLE2=Mac Dre, P.S.D., Dubee, Mac Mall - Song 4 U 
TTITLE3=Dubee, Mac Mall, P.S.D. - So Fly
TTITLE4=Mac Dre, Dubee, P.S.D., Mac Mall - What U Got 4 Me?
TTITLE5=P.S.D., Mac Mall, Dubee - Cuddie Roc Ughhh
TTITLE6=P.S.D., Dubee, Mac Mall - Respect
TTITLE7=Mac Dre, P.S.D., Dubee, Mac Mall - Can't Be On That
TTITLE8=Reek Daddy, P.S.D. - Reek Daddy Skit 
TTITLE9=Mac Mall, Mac Dre, Dubee, P.S.D. - Paper
TTITLE10=Cutthoat Committee - Wo Di Do Skit
TTITLE11=Dubee, P.S.D. - I Think I Luv U Gal 
TTITLE12=Dubee, P.S.D., Mac Mall - Wasn't Me 
TTITLE13=P.S.D., Mob Figaz, Dubee, J-Diggs, Mac Mall - What I Tell U?
TTITLE14=Dubee, P.S.D., Mac Mall - Bitch Lost Her Mind
TTITLE15=P.S.D., Mac Dre, Dubee - Can't Fuck Wit Me
TTITLE16=Mac Dre, Mac Mall, Dubee, P.S.D. - Get Stupid (Cut Remix)
EXTD=RapMusicGuide.com
EXTT0=
EXTT1=
EXTT2=
EXTT3=
EXTT4=
EXTT5=
EXTT6=
EXTT7=
EXTT8=
EXTT9=
EXTT10=
EXTT11=
EXTT12=
EXTT13=
EXTT14=
EXTT15=
EXTT16=
PLAYORDER=
